HIERARCHY
ROOT Hips
{
  OFFSET 48.0453 85.5577 20.7888
  CHANNELS 6 Xposition Yposition Zposition Zrotation Xrotation Yrotation
  JOINT spine
  {
    OFFSET 0 6.3926 0.367606
    CHANNELS 3 Zrotation Xrotation Yrotation
    JOINT spine1
    {
      OFFSET 0 9.17611 0
      CHANNELS 3 Zrotation Xrotation Yrotation
      JOINT spine2
      {
        OFFSET 0 8.79238 0
        CHANNELS 3 Zrotation Xrotation Yrotation
        JOINT Neck
        {
          OFFSET 0 22.5737 1.07624
          CHANNELS 3 Zrotation Xrotation Yrotation
          JOINT Head
          {
            OFFSET 0 6.82011 0
            CHANNELS 3 Zrotation Xrotation Yrotation
            End Site
            {
              OFFSET 0 16.5085 -5.44427
            }
          }
        }
        JOINT RightShoulder
        {
          OFFSET -3.70221 9.49509 -0.515508
          CHANNELS 3 Zrotation Xrotation Yrotation
          JOINT RightArm
          {
            OFFSET 0 12.4537 0
            CHANNELS 3 Zrotation Xrotation Yrotation
            JOINT RightArmRoll
            {
              OFFSET 0 6.28685 0
              CHANNELS 3 Zrotation Xrotation Yrotation
              JOINT RightForeArm
              {
                OFFSET 0 18.3114 0
                CHANNELS 3 Zrotation Xrotation Yrotation
                JOINT RightForeArmRoll
                {
                  OFFSET 0 7.05482 0
                  CHANNELS 3 Zrotation Xrotation Yrotation
                  JOINT RightHand
                  {
                    OFFSET 0 14.1575 0
                    CHANNELS 3 Zrotation Xrotation Yrotation
                    End Site
                    {
                      OFFSET 0 0 0
                    }
                  }
                }
              }
            }
          }
        }
        JOINT LeftShoulder
        {
          OFFSET 3.70221 9.49509 -0.515508
          CHANNELS 3 Zrotation Xrotation Yrotation
          JOINT LeftArm
          {
            OFFSET 0 12.4537 0
            CHANNELS 3 Zrotation Xrotation Yrotation
            JOINT LeftArmRoll
            {
              OFFSET 0 6.28685 0
              CHANNELS 3 Zrotation Xrotation Yrotation
              JOINT LeftForeArm
              {
                OFFSET 0 18.3114 0
                CHANNELS 3 Zrotation Xrotation Yrotation
                JOINT LeftForeArmRoll
                {
                  OFFSET 0 7.05482 0
                  CHANNELS 3 Zrotation Xrotation Yrotation
                  JOINT LeftHand
                  {
                    OFFSET 0 14.1575 0
                    CHANNELS 3 Zrotation Xrotation Yrotation
                    End Site
                    {
                      OFFSET 0 0 0
                    }
                  }
                }
              }
            }
          }
        }
      }
    }
  }
  JOINT RightUpLeg
  {
    OFFSET -5.66616 -1.03903 -0.87161
    CHANNELS 3 Zrotation Xrotation Yrotation
    JOINT RightUpLegRoll
    {
      OFFSET 0 16.6005 0
      CHANNELS 3 Zrotation Xrotation Yrotation
      JOINT RightLeg
      {
        OFFSET 0 -20.5572 0
        CHANNELS 3 Zrotation Xrotation Yrotation
        JOINT RightLegRoll
        {
          OFFSET 0 20.6244 0
          CHANNELS 3 Zrotation Xrotation Yrotation
          JOINT RightFoot
          {
            OFFSET 0 17.1664 0
            CHANNELS 3 Zrotation Xrotation Yrotation
            JOINT RightToeBase
            {
              OFFSET 0 14.3502 0
              CHANNELS 3 Zrotation Xrotation Yrotation
              End Site
              {
                OFFSET 0.00608252 6.94971 -0.80106
              }
            }
          }
        }
      }
    }
  }
  JOINT LeftUpLeg
  {
    OFFSET 5.66616 -1.03903 -0.87161
    CHANNELS 3 Zrotation Xrotation Yrotation
    JOINT LeftUpLegRoll
    {
      OFFSET 0 16.6006 0
      CHANNELS 3 Zrotation Xrotation Yrotation
      JOINT LeftLeg
      {
        OFFSET 0 20.5571 0
        CHANNELS 3 Zrotation Xrotation Yrotation
        JOINT LeftLegRoll
        {
          OFFSET 0 20.8151 0
          CHANNELS 3 Zrotation Xrotation Yrotation
          JOINT LeftFoot
          {
            OFFSET 0 16.9757 0
            CHANNELS 3 Zrotation Xrotation Yrotation
            JOINT LeftToeBase
            {
              OFFSET 0 14.3502 0
              CHANNELS 3 Zrotation Xrotation Yrotation
              End Site
              {
                OFFSET -0.0272592 6.94971 -0.801061
              }
            }
          }
        }
      }
    }
  }
}
MOTION
Frames: 6
Frame Time: 0.00208333
48.2931 91.7319 12.8498 1.03935 6.66018 -0.0550557 -0.798981 -2.56946 -0.275121 -1.60477 -1.13315 -0.482388 -1.59902 0.511522 -0.45556 3.07098 24.0458 -0.2866 -1.09192 2.87665 0.90764 29.0623 -24.1048 -21.6911 75.2269 27.8182 44.5243 -1.70243e-005 -3.41999e-006 -3.48151e-006 -3.29641 47.9535 1.42553 1.73308e-006 3.06841e-006 -3.00015 8.0291 -4.95139 0.697704 -21.0492 -20.3586 19.1525 -71.9629 22.9415 -31.0144 2.21235e-005 -1.18673e-006 3.48613e-006 3.71113 46.2634 -2.70451 -3.73895e-007 3.19245e-006 3.00346 -8.02887 -4.9514 -0.697675 168.671 14.0231 3.68298 180 7.01529e-015 178.85 -179.931 19.8835 179.003 2.7829e-006 3.15208e-006 0.0874026 -16.8342 65.5659 17.7225 8.13649 25.2327 -3.48774 -170.827 13.8691 -2.16445 4.54188e-006 -4.6773e-006 -1.11834 -0.026336 -18.9456 0.623421 -2.31271e-006 7.68175e-007 -0.118227 17.0604 65.7171 -17.8327 -8.1365 25.2327 3.48775 
48.3047 91.7682 12.867 1.02705 6.65086 -0.0306447 -0.790097 -2.56411 -0.269159 -1.58681 -1.12256 -0.471139 -1.5812 0.522121 -0.444612 2.96266 23.9223 -0.284747 -1.00584 2.97265 0.86819 29.2908 -24.053 -21.5771 75.7378 27.5045 43.8419 -1.70243e-005 -3.41999e-006 -3.48151e-006 -3.29543 46.9677 1.31864 1.73308e-006 3.06841e-006 -3.00014 8.0291 -4.95139 0.697704 -21.4897 -20.288 18.9665 -72.3914 22.83 -30.729 2.21235e-005 -1.18673e-006 3.48613e-006 3.6012 46.1419 -2.60546 -3.73895e-007 3.19245e-006 3.00347 -8.02887 -4.9514 -0.697675 168.894 14.0773 3.64095 180 7.01531e-015 178.856 179.932 19.9386 179.025 2.7829e-006 3.15208e-006 0.098926 -16.8472 65.6195 17.7597 8.13649 25.2327 -3.48774 -171.044 13.93 -2.05359 4.54188e-006 -4.6773e-006 -1.11073 -0.0840429 -19.0199 0.617854 -2.31271e-006 7.68175e-007 -0.12423 17.0814 65.7656 -17.8672 -8.1365 25.2327 3.48775 
48.3444 91.8361 12.8781 1.01933 6.63854 -0.00814548 -0.782404 -2.55842 -0.264212 -1.57127 -1.11128 -0.461819 -1.56577 0.533409 -0.435552 2.85513 23.8105 -0.281553 -0.92176 3.05982 0.830585 29.5462 -23.986 -21.4401 76.2069 27.1749 43.2305 -1.70243e-005 -3.41999e-006 -3.48151e-006 -3.29736 46.0571 1.22388 1.73308e-006 3.06841e-006 -3.00014 8.0291 -4.95139 0.697704 -21.9335 -20.2137 18.7768 -72.8208 22.6998 -30.471 2.21235e-005 -1.18673e-006 3.48613e-006 3.51902 46.0311 -2.51837 -3.73895e-007 3.19245e-006 3.00349 -8.02887 -4.9514 -0.697675 169.109 14.1274 3.59958 180 7.01533e-015 178.863 179.8 19.994 179.046 2.7829e-006 3.15208e-006 0.109722 -16.8612 65.6725 17.7966 8.13649 25.2327 -3.48774 -171.266 13.9828 -1.93889 4.54188e-006 -4.6773e-006 -1.10349 -0.1396 -19.0916 0.612311 -2.31271e-006 7.68175e-007 -0.129959 17.1013 65.812 -17.9003 -8.1365 25.2327 3.48775 
48.316 91.8765 12.8974 1.01697 6.62298 0.0122991 -0.776132 -2.55243 -0.260429 -1.5586 -1.09938 -0.454703 -1.55319 0.545321 -0.428648 2.74905 23.7138 -0.277089 -0.840348 3.13523 0.795058 29.8333 -23.9019 -21.2769 76.6286 26.8297 42.6995 -1.70243e-005 -3.41999e-006 -3.48151e-006 -3.30074 45.2354 1.14129 1.73308e-006 3.06841e-006 -3.00013 8.0291 -4.95139 0.697704 -22.3821 -20.1353 18.5821 -73.2459 22.5428 -30.2391 2.21235e-005 -1.18673e-006 3.48613e-006 3.46497 45.93 -2.44149 -3.73895e-007 3.19245e-006 3.0035 -8.02887 -4.9514 -0.697675 169.315 14.1725 3.55869 180 7.01534e-015 178.869 179.673 20.0494 179.067 2.7829e-006 3.15208e-006 0.11967 -16.8762 65.7247 17.833 8.13649 25.2327 -3.48774 -171.494 14.0263 -1.82003 4.54188e-006 -4.6773e-006 -1.09669 -0.192911 -19.1591 0.606724 -2.31271e-006 7.68175e-007 -0.135376 17.1199 65.8559 -17.9314 -8.1365 25.2327 3.48775 
48.3694 91.922 12.9062 1.02092 6.60313 0.0315786 -0.771351 -2.54574 -0.257999 -1.54896 -1.08606 -0.450164 -1.54361 0.558643 -0.424271 2.64084 23.6258 -0.270411 -0.75907 3.20648 0.761126 30.1423 -23.8013 -21.0902 77.0185 26.4732 42.2482 -1.70243e-005 -3.41999e-006 -3.48151e-006 -3.30573 44.5043 1.07055 1.73308e-006 3.06841e-006 -3.00013 8.0291 -4.95139 0.697704 -22.8299 -20.0551 18.3866 -73.6981 22.3823 -30.0575 2.21235e-005 -1.18673e-006 3.48613e-006 3.45888 45.8685 -2.39148 -3.73895e-007 3.19245e-006 3.00351 -8.02887 -4.9514 -0.697675 169.511 14.2129 3.52087 180 7.01536e-015 178.876 179.55 20.1063 179.088 2.7829e-006 3.15208e-006 0.128951 -16.8925 65.7768 17.8695 8.13649 25.2327 -3.48774 -171.73 14.0612 -1.69414 4.54188e-006 -4.6773e-006 -1.09025 -0.243362 -19.2249 0.601336 -2.31271e-006 7.68175e-007 -0.140499 17.1376 65.8979 -17.9612 -8.1365 25.2327 3.48775 
48.3514 91.9617 12.9249 1.03103 6.57849 0.0505099 -0.767848 -2.53804 -0.256892 -1.54191 -1.07068 -0.448154 -1.53659 0.574025 -0.42238 2.52713 23.5379 -0.26075 -0.675314 3.2825 0.728165 30.4602 -23.6868 -20.8856 77.3963 26.1116 41.8651 -1.70243e-005 -3.41999e-006 -3.48151e-006 -3.31255 43.849 1.01007 1.73308e-006 3.06841e-006 -3.00013 8.0291 -4.95139 0.697704 -23.2713 -19.9754 18.1947 -74.2071 22.2453 -29.9452 2.21235e-005 -1.18673e-006 3.48613e-006 3.51448 45.8696 -2.38227 -3.73895e-007 3.19245e-006 3.00353 -8.02887 -4.9514 -0.697675 169.698 14.25 3.48818 180 7.01537e-015 178.882 179.426 20.1665 179.108 2.7829e-006 3.15208e-006 0.137836 -16.9105 65.8296 17.9064 8.13649 25.2327 -3.48774 -171.977 14.0895 -1.55952 4.54188e-006 -4.6773e-006 -1.08406 -0.290615 -19.2923 0.596404 -2.31271e-006 7.68175e-007 -0.145392 17.1555 65.9388 -17.99 -8.1365 25.2327 3.48775 
